<?xml version="1.0" encoding="UTF-8"?><svg id="a" xmlns="http://www.w3.org/2000/svg" xmlns:xlink="http://www.w3.org/1999/xlink" viewBox="0 0 640 640"><defs><style>.f{fill:url(#e);}.g{fill:#00295d;}.h{fill:#00b5e2;}.i{fill:#bbdde6;}</style><linearGradient id="e" x1="362.39" y1="413.87" x2="550.26" y2="226" gradientTransform="matrix(1, 0, 0, 1, 0, 0)" gradientUnits="userSpaceOnUse"><stop offset="0" stop-color="#00295d"/><stop offset=".5" stop-color="#00b5e2"/><stop offset="1" stop-color="#bbdde6"/></linearGradient></defs><path id="b" class="i" d="M321.28,0C239.39,0,157.49,31.23,95,93.72c-124.97,124.97-124.97,327.59,0,452.56,124.97,124.97,327.59,124.97,452.56,0,52.29-52.29,82.62-118.18,91.16-186.28h-248.25c-3.42,5.9-7.57,11.51-12.63,16.56-31.24,31.24-81.88,31.24-113.12,0-31.24-31.24-31.24-81.88,0-113.12,15.62-15.62,36.09-23.44,56.56-23.44s40.94,7.82,56.56,23.44c5.05,5.05,9.21,10.66,12.63,16.56h248.25c-8.53-68.1-38.87-133.99-91.16-186.28C485.08,31.23,403.18,0,321.28,0Z"/><path id="c" class="h" d="M321.28,80c-61.42,0-122.86,23.42-169.72,70.28-93.73,93.73-93.73,245.71,0,339.44,93.73,93.73,245.71,93.73,339.44,0,36.65-36.65,58.89-82.22,66.88-129.72h-167.41c-3.42,5.9-7.57,11.51-12.63,16.56-31.24,31.24-81.88,31.24-113.12,0-31.24-31.24-31.24-81.88,0-113.12,15.62-15.62,36.09-23.44,56.56-23.44s40.94,7.82,56.56,23.44c5.05,5.05,9.21,10.66,12.63,16.56h167.41c-7.99-47.5-30.22-93.07-66.88-129.72-46.86-46.86-108.3-70.28-169.72-70.28Z"/><path id="d" class="g" d="M321.28,160c-40.95,0-81.88,15.63-113.12,46.88-62.48,62.48-62.48,163.77,0,226.25,62.48,62.48,163.77,62.48,226.25,0,20.97-20.97,34.73-46.34,41.62-73.12h-85.56c-3.42,5.9-7.57,11.51-12.63,16.56-31.24,31.24-81.88,31.24-113.12,0-31.24-31.24-31.24-81.88,0-113.12,15.62-15.62,36.09-23.44,56.56-23.44s40.94,7.82,56.56,23.44c5.05,5.05,9.21,10.66,12.63,16.56h85.56c-6.89-26.78-20.65-52.15-41.62-73.12-31.24-31.24-72.18-46.88-113.12-46.88Z"/><path class="f" d="M272.62,319.92c0-5.46,4.19-9.7,9.49-9.7s9.07,3.41,9.67,8.35h-5.2c-.39-2.34-2.13-3.95-4.42-3.95-2.76,0-4.5,2.13-4.5,5.3s1.74,5.36,4.5,5.36c2.26,0,4-1.61,4.42-3.98h5.2c-.62,4.99-4.55,8.37-9.67,8.37s-9.49-4.26-9.49-9.75Zm23.01,9.36v-18.67h4.91v6.94h6.89v-6.94h4.91v18.67h-4.91v-7.46h-6.89v7.46h-4.91Zm21.66,0v-18.67h7.64c5.04,0,7.93,2.26,7.93,6.24,0,2.39-1.43,4.37-3.95,5.43l4.58,6.99h-5.85l-3.82-6.21h-1.61v6.21h-4.91Zm4.91-10.27h2.52c2.18,0,3.2-.68,3.2-2.16s-1.01-2.18-3.2-2.18h-2.52v4.34Zm14.79,10.27v-18.67h4.91v18.67h-4.91Zm16.87,.26c-4.86,0-7.98-2.57-8.32-6.71h4.97c.05,1.77,1.22,2.89,3.25,2.89,1.69,0,2.81-.65,2.81-1.82,0-.81-.81-1.4-1.9-1.61l-3.41-.65c-2.99-.57-4.97-2.31-4.97-5.33,0-3.48,3.07-5.93,7.25-5.93,4.45,0,7.64,2.55,7.93,6.58h-4.97c-.13-1.69-1.27-2.78-2.91-2.78-1.46,0-2.34,.78-2.34,1.79,0,.83,.83,1.33,1.82,1.51l3.61,.7c3.33,.65,5.1,2.29,5.1,4.99,0,3.85-3.07,6.37-7.93,6.37Zm28.81,.3c-1.79,1.09-4.06,1.72-6.55,1.72-6.37,0-11.28-5.1-11.28-11.54s5.02-11.57,11.54-11.57,11.15,4.52,11.15,10.3c0,4.08-2.21,6.73-5.23,6.73-1.87,0-2.96-.86-3.28-2.31-.94,1.51-2.37,2.31-4.11,2.31-2.63,0-4.45-2.11-4.45-5.04,0-3.38,2.16-5.9,5.15-5.9,1.87,0,3.22,.96,3.82,2.63l.44-2.26h1.66l-1.09,5.75c-.1,.47-.16,.91-.16,1.3,0,1.38,.73,2.11,2.05,2.11,2.13,0,3.48-1.98,3.48-5.15,0-4.97-3.87-9.02-9.46-9.02s-9.85,4.39-9.85,10.14,4.11,10.11,9.59,10.11c2.68,0,4.97-.7,6.55-1.82v1.53Zm-7.46-5.8c2.11,0,3.69-1.9,3.69-4.45,0-2.29-1.09-3.67-3.07-3.67-2.16,0-3.61,1.9-3.61,4.39,0,2.21,1.17,3.72,2.99,3.72Zm15.39-4.12c0-5.46,4.19-9.7,9.49-9.7s9.07,3.41,9.67,8.35h-5.2c-.39-2.34-2.13-3.95-4.42-3.95-2.76,0-4.5,2.13-4.5,5.3s1.74,5.36,4.5,5.36c2.26,0,4-1.61,4.42-3.98h5.2c-.62,4.99-4.55,8.37-9.67,8.37s-9.49-4.26-9.49-9.75Zm32.99,5.9h-6.55l-1.17,3.46h-4.97l6.92-18.67h5.38l6.84,18.67h-5.3l-1.14-3.46Zm-5.23-3.87h3.95l-1.95-5.93-2,5.93Zm22.26,7.33h-5.36l-6.6-18.67h5.33l4.11,12.92,4.24-12.92h4.94l-6.66,18.67Zm17.97-3.46h-6.55l-1.17,3.46h-4.97l6.92-18.67h5.38l6.84,18.67h-5.3l-1.14-3.46Zm-5.23-3.87h3.95l-1.95-5.93-2,5.93Zm19.45-4.32v11.65h-4.5v-18.67h5.28l6.89,10.79v-10.79h4.5v18.67h-4.73l-7.44-11.65Zm28.13,8.19h-6.55l-1.17,3.46h-4.97l6.92-18.67h5.38l6.84,18.67h-5.3l-1.14-3.46Zm-5.23-3.87h3.95l-1.95-5.93-2,5.93Zm30.32-.1c0,4.52-2.83,7.83-8.09,7.83s-8.11-3.3-8.11-7.83v-11.23h4.91v11.31c0,1.95,.7,3.35,3.2,3.35s3.17-1.4,3.17-3.35v-11.31h4.91v11.23Zm3.79-2c0-5.51,4.06-9.62,9.54-9.62,4.68,0,8.14,2.7,9.44,6.89h-5.82c-.47-1.43-1.85-2.5-3.74-2.5-2.42,0-4.37,1.69-4.37,5.36,0,3.12,1.53,5.54,4.91,5.54,2.13,0,3.46-1.2,4-2.76h-4.5v-3.87h9.75c.39,6.16-3.33,10.79-9.52,10.79-5.43,0-9.7-4-9.7-9.83Zm23.09,9.44v-18.67h4.91v6.94h6.89v-6.94h4.91v18.67h-4.91v-7.46h-6.89v7.46h-4.91Zm23.19,.13c-.94,0-1.64-.7-1.64-1.64,0-.99,.7-1.66,1.64-1.66s1.64,.68,1.64,1.66c0,.94-.68,1.64-1.64,1.64Zm5.38-9.49c0-5.46,4.19-9.7,9.49-9.7s9.07,3.41,9.67,8.35h-5.2c-.39-2.34-2.13-3.95-4.42-3.95-2.76,0-4.5,2.13-4.5,5.3s1.74,5.36,4.5,5.36c2.26,0,4-1.61,4.42-3.98h5.2c-.62,4.99-4.55,8.37-9.67,8.37s-9.49-4.26-9.49-9.75Zm36.22,9.36h-13.21v-18.67h13.03v4.26h-8.11v2.68h7.36v4.26h-7.36v3.2h8.29v4.26Zm3.02-9.36c0-5.67,4.24-9.7,9.62-9.7s9.65,4.03,9.65,9.7-4.24,9.75-9.65,9.75-9.62-4.08-9.62-9.75Zm14.2,0c0-2.94-1.64-5.3-4.58-5.3s-4.58,2.37-4.58,5.3,1.64,5.36,4.58,5.36,4.58-2.42,4.58-5.36Z"/></svg>